# xmcd
#
# Track frame offsets: 
#        150
#        27242
#        47707
#        68732
#
# Disc length: 1171 seconds
#
# Revision: 0
# Processed by: cddbd v1.4PL0 Copyright (c) Steve Scherf et al.
# Submitted via: ExactAudioCopy v0.90a11
#
DISCID=2d049104
DTITLE=Grand Drive - True Love and High Adventure
DYEAR=1900
DGENRE=
TTITLE0=My Best Side
TTITLE1=The First Time Again
TTITLE2=She Loves The Jerk
TTITLE3=Jukebox
EXTD=Promotion Copy - CD Sampler from RCA Victor
EXTT0=
EXTT1=
EXTT2=
EXTT3=
PLAYORDER=
